<?xml version="1.0" standalone="no"?>
<!DOCTYPE svg PUBLIC "-//W3C//DTD SVG 20010904//EN"
 "http://www.w3.org/TR/2001/REC-SVG-20010904/DTD/svg10.dtd">
<svg version="1.0" xmlns="http://www.w3.org/2000/svg"
 width="106.000000pt" height="175.000000pt" viewBox="0 0 106.000000 175.000000"
 preserveAspectRatio="xMidYMid meet">

<g transform="translate(0.000000,175.000000) scale(0.100000,-0.100000)"
fill="#ffffff" stroke="none">
<path d="M475 1531 c-65 -17 -117 -56 -144 -108 -7 -14 -11 -97 -11 -235 l0
-213 -33 -15 c-17 -8 -33 -23 -35 -32 -3 -16 7 -18 107 -18 104 0 111 1 111
20 0 13 -9 22 -27 26 -16 3 -34 7 -41 10 -10 3 -12 49 -10 219 l3 215 32 32
c28 28 40 32 95 36 51 2 70 -1 96 -18 55 -34 62 -65 62 -283 l0 -194 -40 -12
c-29 -9 -40 -17 -40 -32 0 -19 6 -19 122 -17 106 3 123 5 126 20 2 12 -6 20
-30 26 l-33 8 -5 225 -5 226 -28 36 c-16 21 -46 46 -68 58 -45 22 -154 33
-204 20z"/>
<path d="M510 860 c-22 -41 20 -84 65 -67 20 8 30 54 15 72 -19 22 -67 19 -80
-5z"/>
<path d="M242 748 c2 -14 12 -24 28 -28 l25 -6 5 -220 c5 -219 5 -221 32 -261
40 -61 103 -88 203 -88 100 0 163 27 203 88 27 40 27 41 30 258 l4 218 29 10
c19 7 29 17 29 30 0 20 -6 21 -110 21 -103 0 -110 -1 -110 -20 0 -13 9 -22 28
-26 15 -3 33 -7 40 -10 20 -6 17 -405 -4 -445 -40 -78 -212 -77 -251 1 -9 18
-13 87 -13 232 l0 207 31 9 c19 4 35 17 40 30 8 22 8 22 -117 22 -124 0 -125
0 -122 -22z"/>
</g>
</svg>
